<svg width="25" height="25" viewBox="0 0 25 25" fill="none" xmlns="http://www.w3.org/2000/svg">
<path d="M18.3359 3.75391C17.5403 3.75391 16.7772 4.06998 16.2146 4.63259C15.652 5.1952 15.3359 5.95826 15.3359 6.75391V18.7539C15.3359 19.5496 15.652 20.3126 16.2146 20.8752C16.7772 21.4378 17.5403 21.7539 18.3359 21.7539C19.1316 21.7539 19.8946 21.4378 20.4573 20.8752C21.0199 20.3126 21.3359 19.5496 21.3359 18.7539C21.3359 17.9583 21.0199 17.1952 20.4573 16.6326C19.8946 16.07 19.1316 15.7539 18.3359 15.7539H6.33594C5.54029 15.7539 4.77723 16.07 4.21462 16.6326C3.65201 17.1952 3.33594 17.9583 3.33594 18.7539C3.33594 19.5496 3.65201 20.3126 4.21462 20.8752C4.77723 21.4378 5.54029 21.7539 6.33594 21.7539C7.13159 21.7539 7.89465 21.4378 8.45726 20.8752C9.01987 20.3126 9.33594 19.5496 9.33594 18.7539V6.75391C9.33594 5.95826 9.01987 5.1952 8.45726 4.63259C7.89465 4.06998 7.13159 3.75391 6.33594 3.75391C5.54029 3.75391 4.77723 4.06998 4.21462 4.63259C3.65201 5.1952 3.33594 5.95826 3.33594 6.75391C3.33594 7.54956 3.65201 8.31262 4.21462 8.87523C4.77723 9.43784 5.54029 9.75391 6.33594 9.75391H18.3359C19.1316 9.75391 19.8946 9.43784 20.4573 8.87523C21.0199 8.31262 21.3359 7.54956 21.3359 6.75391C21.3359 5.95826 21.0199 5.1952 20.4573 4.63259C19.8946 4.06998 19.1316 3.75391 18.3359 3.75391Z" stroke="#bfbec2" stroke-width="2" stroke-linecap="round" stroke-linejoin="round"/>
</svg>
