<svg width="194" height="41" viewBox="0 0 194 41" fill="none" xmlns="http://www.w3.org/2000/svg">
<path d="M0.924 31.0007V0.90073H11.201C14.727 0.90073 17.6223 1.5314 19.887 2.79273C22.1803 4.0254 23.8717 5.77406 24.961 8.03873C26.079 10.2747 26.638 12.9121 26.638 15.9507C26.638 18.9894 26.079 21.6411 24.961 23.9057C23.8717 26.1417 22.1803 27.8904 19.887 29.1517C17.6223 30.3844 14.727 31.0007 11.201 31.0007H0.924ZM6.428 26.2707H10.943C13.4657 26.2707 15.458 25.8694 16.92 25.0667C18.382 24.2354 19.4283 23.0601 20.059 21.5407C20.6897 19.9927 21.005 18.1294 21.005 15.9507C21.005 13.8007 20.6897 11.9517 20.059 10.4037C19.4283 8.85573 18.382 7.66606 16.92 6.83473C15.458 6.0034 13.4657 5.58773 10.943 5.58773H6.428V26.2707ZM38.7183 31.5167C36.8836 31.5167 35.3786 31.2301 34.2033 30.6567C33.028 30.0547 32.1536 29.2664 31.5803 28.2917C31.007 27.3171 30.7203 26.2421 30.7203 25.0667C30.7203 23.0887 31.4943 21.4834 33.0423 20.2507C34.5903 19.0181 36.9123 18.4017 40.0083 18.4017H45.4263V17.8857C45.4263 16.4237 45.0106 15.3487 44.1793 14.6607C43.348 13.9727 42.316 13.6287 41.0833 13.6287C39.9653 13.6287 38.9906 13.9011 38.1593 14.4457C37.328 14.9617 36.812 15.7357 36.6113 16.7677H31.2363C31.3796 15.2197 31.8956 13.8724 32.7843 12.7257C33.7016 11.5791 34.877 10.7047 36.3103 10.1027C37.7436 9.47206 39.349 9.15673 41.1263 9.15673C44.165 9.15673 46.5586 9.9164 48.3073 11.4357C50.056 12.9551 50.9303 15.1051 50.9303 17.8857V31.0007H46.2433L45.7273 27.5607C45.0966 28.7074 44.208 29.6534 43.0613 30.3987C41.9433 31.1441 40.4956 31.5167 38.7183 31.5167ZM39.9653 27.2167C41.542 27.2167 42.7603 26.7007 43.6203 25.6687C44.509 24.6367 45.068 23.3611 45.2973 21.8417H40.6103C39.1483 21.8417 38.102 22.1141 37.4713 22.6587C36.8406 23.1747 36.5253 23.8197 36.5253 24.5937C36.5253 25.4251 36.8406 26.0701 37.4713 26.5287C38.102 26.9874 38.9333 27.2167 39.9653 27.2167ZM56.1827 31.0007V9.67273H61.0417L61.4717 13.2847C62.131 12.0234 63.077 11.0201 64.3097 10.2747C65.571 9.5294 67.0474 9.15673 68.7387 9.15673C71.376 9.15673 73.4257 9.98807 74.8877 11.6507C76.3497 13.3134 77.0807 15.7501 77.0807 18.9607V31.0007H71.5767V19.4767C71.5767 17.6421 71.204 16.2374 70.4587 15.2627C69.7134 14.2881 68.5524 13.8007 66.9757 13.8007C65.4277 13.8007 64.152 14.3454 63.1487 15.4347C62.174 16.5241 61.6867 18.0434 61.6867 19.9927V31.0007H56.1827ZM80.9678 31.0007V26.5717L91.8468 14.2307H81.0968V9.67273H98.1248V14.1017L87.0738 26.4427H98.3398V31.0007H80.9678ZM102.92 31.0007V0.0407312H108.424V31.0007H102.92ZM116.714 40.4607L121.659 29.5817H120.369L112.07 9.67273H118.047L124.024 24.6797L130.259 9.67273H136.107L122.562 40.4607H116.714ZM138.795 31.3017C137.791 31.3017 136.96 30.9864 136.301 30.3557C135.67 29.7251 135.355 28.9654 135.355 28.0767C135.355 27.1594 135.67 26.3854 136.301 25.7547C136.96 25.1241 137.791 24.8087 138.795 24.8087C139.798 24.8087 140.615 25.1241 141.246 25.7547C141.905 26.3854 142.235 27.1594 142.235 28.0767C142.235 28.9654 141.905 29.7251 141.246 30.3557C140.615 30.9864 139.798 31.3017 138.795 31.3017Z" fill="black"/>
<path d="M157.209 31.5167C155.03 31.5167 153.11 31.0437 151.447 30.0977C149.784 29.1517 148.466 27.8331 147.491 26.1417C146.545 24.4504 146.072 22.5154 146.072 20.3367C146.072 18.1581 146.545 16.2231 147.491 14.5317C148.466 12.8404 149.784 11.5217 151.447 10.5757C153.11 9.62973 155.03 9.15673 157.209 9.15673C159.932 9.15673 162.226 9.8734 164.089 11.3067C165.952 12.7114 167.142 14.6607 167.658 17.1547H161.853C161.566 16.1227 160.993 15.3201 160.133 14.7467C159.302 14.1447 158.313 13.8437 157.166 13.8437C155.647 13.8437 154.357 14.4171 153.296 15.5637C152.235 16.7104 151.705 18.3014 151.705 20.3367C151.705 22.3721 152.235 23.9631 153.296 25.1097C154.357 26.2564 155.647 26.8297 157.166 26.8297C158.313 26.8297 159.302 26.5431 160.133 25.9697C160.993 25.3964 161.566 24.5794 161.853 23.5187H167.658C167.142 25.9267 165.952 27.8617 164.089 29.3237C162.226 30.7857 159.932 31.5167 157.209 31.5167ZM182.777 31.5167C180.713 31.5167 178.85 31.0437 177.187 30.0977C175.553 29.1517 174.249 27.8474 173.274 26.1847C172.328 24.4934 171.855 22.5441 171.855 20.3367C171.855 18.1294 172.342 16.1944 173.317 14.5317C174.292 12.8404 175.596 11.5217 177.23 10.5757C178.893 9.62973 180.756 9.15673 182.82 9.15673C184.855 9.15673 186.69 9.62973 188.324 10.5757C189.987 11.5217 191.291 12.8404 192.237 14.5317C193.212 16.1944 193.699 18.1294 193.699 20.3367C193.699 22.5441 193.212 24.4934 192.237 26.1847C191.291 27.8474 189.987 29.1517 188.324 30.0977C186.661 31.0437 184.812 31.5167 182.777 31.5167ZM182.777 26.7437C184.21 26.7437 185.457 26.2134 186.518 25.1527C187.579 24.0634 188.109 22.4581 188.109 20.3367C188.109 18.2154 187.579 16.6244 186.518 15.5637C185.457 14.4744 184.225 13.9297 182.82 13.9297C181.358 13.9297 180.097 14.4744 179.036 15.5637C178.004 16.6244 177.488 18.2154 177.488 20.3367C177.488 22.4581 178.004 24.0634 179.036 25.1527C180.097 26.2134 181.344 26.7437 182.777 26.7437Z" fill="#6C57DB"/>
</svg>
