<svg width="194" height="41" viewBox="0 0 194 41" fill="none" xmlns="http://www.w3.org/2000/svg">
<path d="M0.924 31V0.899998H11.201C14.727 0.899998 17.6223 1.53067 19.887 2.792C22.1803 4.02467 23.8717 5.77333 24.961 8.038C26.079 10.274 26.638 12.9113 26.638 15.95C26.638 18.9887 26.079 21.6403 24.961 23.905C23.8717 26.141 22.1803 27.8897 19.887 29.151C17.6223 30.3837 14.727 31 11.201 31H0.924ZM6.428 26.27H10.943C13.4657 26.27 15.458 25.8687 16.92 25.066C18.382 24.2347 19.4283 23.0593 20.059 21.54C20.6897 19.992 21.005 18.1287 21.005 15.95C21.005 13.8 20.6897 11.951 20.059 10.403C19.4283 8.855 18.382 7.66533 16.92 6.834C15.458 6.00267 13.4657 5.587 10.943 5.587H6.428V26.27ZM38.7183 31.516C36.8836 31.516 35.3786 31.2293 34.2033 30.656C33.028 30.054 32.1536 29.2657 31.5803 28.291C31.007 27.3163 30.7203 26.2413 30.7203 25.066C30.7203 23.088 31.4943 21.4827 33.0423 20.25C34.5903 19.0173 36.9123 18.401 40.0083 18.401H45.4263V17.885C45.4263 16.423 45.0106 15.348 44.1793 14.66C43.348 13.972 42.316 13.628 41.0833 13.628C39.9653 13.628 38.9906 13.9003 38.1593 14.445C37.328 14.961 36.812 15.735 36.6113 16.767H31.2363C31.3796 15.219 31.8956 13.8717 32.7843 12.725C33.7016 11.5783 34.877 10.704 36.3103 10.102C37.7436 9.47133 39.349 9.156 41.1263 9.156C44.165 9.156 46.5586 9.91567 48.3073 11.435C50.056 12.9543 50.9303 15.1043 50.9303 17.885V31H46.2433L45.7273 27.56C45.0966 28.7067 44.208 29.6527 43.0613 30.398C41.9433 31.1433 40.4956 31.516 38.7183 31.516ZM39.9653 27.216C41.542 27.216 42.7603 26.7 43.6203 25.668C44.509 24.636 45.068 23.3603 45.2973 21.841H40.6103C39.1483 21.841 38.102 22.1133 37.4713 22.658C36.8406 23.174 36.5253 23.819 36.5253 24.593C36.5253 25.4243 36.8406 26.0693 37.4713 26.528C38.102 26.9867 38.9333 27.216 39.9653 27.216ZM56.1827 31V9.672H61.0417L61.4717 13.284C62.131 12.0227 63.077 11.0193 64.3097 10.274C65.571 9.52867 67.0474 9.156 68.7387 9.156C71.376 9.156 73.4257 9.98733 74.8877 11.65C76.3497 13.3127 77.0807 15.7493 77.0807 18.96V31H71.5767V19.476C71.5767 17.6413 71.204 16.2367 70.4587 15.262C69.7134 14.2873 68.5524 13.8 66.9757 13.8C65.4277 13.8 64.152 14.3447 63.1487 15.434C62.174 16.5233 61.6867 18.0427 61.6867 19.992V31H56.1827ZM80.9678 31V26.571L91.8468 14.23H81.0968V9.672H98.1248V14.101L87.0738 26.442H98.3398V31H80.9678ZM102.92 31V0.0399988H108.424V31H102.92ZM116.714 40.46L121.659 29.581H120.369L112.07 9.672H118.047L124.024 24.679L130.259 9.672H136.107L122.562 40.46H116.714ZM138.795 31.301C137.791 31.301 136.96 30.9857 136.301 30.355C135.67 29.7243 135.355 28.9647 135.355 28.076C135.355 27.1587 135.67 26.3847 136.301 25.754C136.96 25.1233 137.791 24.808 138.795 24.808C139.798 24.808 140.615 25.1233 141.246 25.754C141.905 26.3847 142.235 27.1587 142.235 28.076C142.235 28.9647 141.905 29.7243 141.246 30.355C140.615 30.9857 139.798 31.301 138.795 31.301Z" fill="white"/>
<path d="M157.209 31.516C155.03 31.516 153.11 31.043 151.447 30.097C149.784 29.151 148.466 27.8323 147.491 26.141C146.545 24.4497 146.072 22.5147 146.072 20.336C146.072 18.1573 146.545 16.2223 147.491 14.531C148.466 12.8397 149.784 11.521 151.447 10.575C153.11 9.629 155.03 9.156 157.209 9.156C159.932 9.156 162.226 9.87267 164.089 11.306C165.952 12.7107 167.142 14.66 167.658 17.154H161.853C161.566 16.122 160.993 15.3193 160.133 14.746C159.302 14.144 158.313 13.843 157.166 13.843C155.647 13.843 154.357 14.4163 153.296 15.563C152.235 16.7097 151.705 18.3007 151.705 20.336C151.705 22.3713 152.235 23.9623 153.296 25.109C154.357 26.2557 155.647 26.829 157.166 26.829C158.313 26.829 159.302 26.5423 160.133 25.969C160.993 25.3957 161.566 24.5787 161.853 23.518H167.658C167.142 25.926 165.952 27.861 164.089 29.323C162.226 30.785 159.932 31.516 157.209 31.516ZM182.777 31.516C180.713 31.516 178.85 31.043 177.187 30.097C175.553 29.151 174.249 27.8467 173.274 26.184C172.328 24.4927 171.855 22.5433 171.855 20.336C171.855 18.1287 172.342 16.1937 173.317 14.531C174.292 12.8397 175.596 11.521 177.23 10.575C178.893 9.629 180.756 9.156 182.82 9.156C184.855 9.156 186.69 9.629 188.324 10.575C189.987 11.521 191.291 12.8397 192.237 14.531C193.212 16.1937 193.699 18.1287 193.699 20.336C193.699 22.5433 193.212 24.4927 192.237 26.184C191.291 27.8467 189.987 29.151 188.324 30.097C186.661 31.043 184.812 31.516 182.777 31.516ZM182.777 26.743C184.21 26.743 185.457 26.2127 186.518 25.152C187.579 24.0627 188.109 22.4573 188.109 20.336C188.109 18.2147 187.579 16.6237 186.518 15.563C185.457 14.4737 184.225 13.929 182.82 13.929C181.358 13.929 180.097 14.4737 179.036 15.563C178.004 16.6237 177.488 18.2147 177.488 20.336C177.488 22.4573 178.004 24.0627 179.036 25.152C180.097 26.2127 181.344 26.743 182.777 26.743Z" fill="#6C57DB"/>
</svg>
