<svg width="197" height="30" viewBox="0 0 197 30" fill="none" xmlns="http://www.w3.org/2000/svg">
<path d="M15 0L18.3677 10.3647H29.2658L20.4491 16.7705L23.8168 27.1353L15 20.7295L6.18322 27.1353L9.55093 16.7705L0.734152 10.3647H11.6323L15 0Z" fill="#FAAE30"/>
<path d="M56.5391 0L59.9068 10.3647H70.8049L61.9881 16.7705L65.3558 27.1353L56.5391 20.7295L47.7223 27.1353L51.09 16.7705L42.2732 10.3647H53.1714L56.5391 0Z" fill="#FAAE30"/>
<path d="M98.0781 0L101.446 10.3647H112.344L103.527 16.7705L106.895 27.1353L98.0781 20.7295L89.2613 27.1353L92.6291 16.7705L83.8123 10.3647H94.7104L98.0781 0Z" fill="#FAAE30"/>
<path d="M139.617 0L142.985 10.3647H153.883L145.066 16.7705L148.434 27.1353L139.617 20.7295L130.8 27.1353L134.168 16.7705L125.351 10.3647H136.249L139.617 0Z" fill="#FAAE30"/>
<path d="M181.156 0L184.524 10.3647H195.422L186.605 16.7705L189.973 27.1353L181.156 20.7295L172.339 27.1353L175.707 16.7705L166.89 10.3647H177.789L181.156 0Z" fill="#FAAE30"/>
</svg>
